<svg id="Layer_1" data-name="Layer 1" xmlns="http://www.w3.org/2000/svg" xmlns:xlink="http://www.w3.org/1999/xlink" viewBox="0 0 192 192"><defs><radialGradient id="radial-gradient" cx="668.18" cy="136.05" r="84.08" gradientTransform="matrix(1 0 0 -1 -576 192)" gradientUnits="userSpaceOnUse"><stop offset="0" stop-color="#2d2d2d" stop-opacity=".2"/><stop offset="1" stop-color="#2d2d2d" stop-opacity="0"/></radialGradient><radialGradient id="radial-gradient-2" cx="597.88" cy="143.48" r="78.04" xlink:href="#radial-gradient"/><radialGradient id="radial-gradient-3" cx="671.84" cy="95.86" r="87.87" gradientTransform="matrix(1 0 0 -1 -576 192)" gradientUnits="userSpaceOnUse"><stop offset="0" stop-color="#2f2f2f" stop-opacity=".2"/><stop offset="1" stop-color="#2f2f2f" stop-opacity="0"/></radialGradient><radialGradient id="radial-gradient-4" cx="199" cy="312" r="37.16" gradientUnits="userSpaceOnUse"><stop offset="0" stop-color="#fff" stop-opacity=".1"/><stop offset="1" stop-color="#fff" stop-opacity="0"/></radialGradient><clipPath id="clip-path"><circle class="cls-1" cx="96" cy="96" r="88"/></clipPath><clipPath id="clip-path-6"><path class="cls-1" d="M8 184h83.77l38.88-38.88V116H61.36L8 24.48V184z"/></clipPath><clipPath id="clip-path-9"><path class="cls-1" d="M96 56l34.65 60-38.88 68H184V56H96z"/></clipPath><clipPath id="clip-path-12"><path class="cls-1" d="M21.97 8v40.34L61.36 116 96 56h88V8H21.97z"/></clipPath><linearGradient id="linear-gradient" x1="29.34" y1="116.98" x2="81.84" y2="147.65" gradientTransform="matrix(1 0 0 -1 0 192)" gradientUnits="userSpaceOnUse"><stop offset="0" stop-color="#4b4b4b" stop-opacity=".6"/><stop offset=".66" stop-color="#4b4b4b" stop-opacity="0"/></linearGradient><linearGradient id="linear-gradient-2" x1="110.87" y1="27.51" x2="52.54" y2="61.67" gradientTransform="matrix(1 0 0 -1 0 192)" gradientUnits="userSpaceOnUse"><stop offset="0" stop-color="#383838" stop-opacity=".4"/><stop offset=".33" stop-color="#383838" stop-opacity="0"/></linearGradient><linearGradient id="linear-gradient-3" x1="121.86" y1="142.2" x2="136.54" y2="77.87" gradientTransform="matrix(1 0 0 -1 0 192)" gradientUnits="userSpaceOnUse"><stop offset="0" stop-color="#7f7f7f" stop-opacity=".3"/><stop offset=".66" stop-color="#7f7f7f" stop-opacity="0"/></linearGradient><style>.cls-1{fill:none}.cls-2{clip-path:url(#clip-path)}.cls-3{fill:#707070}.cls-4{fill:url(#linear-gradient)}.cls-5{fill:#2d2d2d;fill-opacity:.15}.cls-6{fill:#6b6b6b}.cls-7{fill:url(#linear-gradient-2)}.cls-10{fill:#ccc}.cls-11{fill:url(#linear-gradient-3)}.cls-22{fill-opacity:.2;fill:#fff}</style></defs><g class="cls-2"><path class="cls-3" d="M22 8v108h39.36L96 56h88V8z"/><path class="cls-4" d="M22 8v108h39.36L96 56h88V8z"/></g><g class="cls-2"><path class="cls-5" d="M62.31 115.65L22.48 47.34l-.58 1 39.54 67.8z"/></g><g class="cls-2"><path class="cls-6" d="M8 184h83.77l38.88-38.88V116H61.36L8 24.48z"/><path class="cls-7" d="M8 184h83.77l38.88-38.88V116H61.36L8 24.48z"/></g><path d="M129.84 117.33l-.83-.48L90.62 184h1.15l38.1-66.64z" fill="#2f2f2f" fill-opacity=".15"/><g clip-path="url(#clip-path-6)"><path class="cls-10" d="M96 56l34.65 60-38.88 68H184V56z"/><path class="cls-11" d="M96 56l34.65 60-38.88 68H184V56z"/></g><g class="cls-2"><path class="cls-10" d="M96 56l34.65 60-38.88 68H184V56z"/><path class="cls-11" d="M96 56l34.65 60-38.88 68H184V56z"/></g><g clip-path="url(#clip-path-9)"><path class="cls-3" d="M22 8v108h39.36L96 56h88V8z"/><path class="cls-4" d="M22 8v108h39.36L96 56h88V8z"/></g><path d="M96 56v21l78.4-21z" fill="url(#radial-gradient)"/><g clip-path="url(#clip-path-12)"><path class="cls-6" d="M8 184h83.77l38.88-38.88V116H61.36L8 24.48z"/><path class="cls-7" d="M8 184h83.77l38.88-38.88V116H61.36L8 24.48z"/></g><path d="M22 48.45l57.25 57.24L61.36 116z" fill="url(#radial-gradient-2)"/><path d="M91.83 183.89l21-78.2L130.65 116z" fill="url(#radial-gradient-3)"/><g class="cls-2"><circle cx="96" cy="96" r="40" fill="#f1f1f1"/><circle cx="96" cy="96" r="32" fill="#7d7d7d"/></g><g class="cls-2"><path d="M96 55a40 40 0 00-40 40v1a40 40 0 0140-40h88v-1z" fill-opacity=".2" fill="#2d2d2d"/><path d="M130.6 116a39.94 39.94 0 01-69.21 0L8 24.48v1L61.36 117a39.94 39.94 0 0069.21 0v-1z" fill-opacity=".1" fill="#fff"/><path d="M97 56h-.5a40 40 0 010 79.94h.5a40 40 0 000-80z" style="isolation:isolate" opacity=".1" fill="#2d2d2d"/><path class="cls-22" d="M131 117.33a39.87 39.87 0 003.5-32 39.56 39.56 0 01-3.87 30.67l-38.86 68h1.16L131 117.37z"/></g><g class="cls-2"><path class="cls-22" d="M96 9a88 88 0 0188 87.5V96A88 88 0 008 96v.5A88 88 0 0196 9z"/><path class="cls-5" d="M96 183a88 88 0 0088-87.5v.5A88 88 0 018 96v-.5A88 88 0 0096 183z"/></g><circle cx="96" cy="96" r="88" fill="url(#radial-gradient-4)"/><path class="cls-1" d="M0 0h192v192H0z"/></svg>